<?xml version="1.0" encoding="UTF-8"?>
<svg xmlns="http://www.w3.org/2000/svg" xmlns:xlink="http://www.w3.org/1999/xlink" width="757.162412pt" height="672.942403pt" viewBox="0 0 757.162412 672.942403" version="1.1">
<g id="surface1">
<path style=" stroke:none;fill-rule:evenodd;fill:rgb(92.939758%,10.978699%,14.118958%);fill-opacity:1;" d="M 561.582031 449.535156 L 561.582031 71.1875 L 183.230469 71.1875 L 183.230469 449.535156 Z M 561.582031 449.535156 "/>
<path style=" stroke:none;fill-rule:evenodd;fill:rgb(100%,100%,100%);fill-opacity:1;" d="M 547.996094 435.953125 L 547.996094 84.769531 L 196.8125 84.769531 L 196.8125 435.953125 Z M 547.996094 435.953125 "/>
<path style=" stroke:none;fill-rule:evenodd;fill:rgb(92.939758%,10.978699%,14.118958%);fill-opacity:1;" d="M 318.078125 206.035156 L 318.078125 98.347656 L 210.390625 98.347656 L 210.390625 206.035156 Z M 318.078125 206.035156 "/>
<path style=" stroke:none;fill-rule:evenodd;fill:rgb(92.939758%,10.978699%,14.118958%);fill-opacity:1;" d="M 534.414063 422.375 L 534.414063 314.6875 L 426.730469 314.6875 L 426.730469 422.375 Z M 534.414063 422.375 "/>
<path style=" stroke:none;fill-rule:evenodd;fill:rgb(92.939758%,10.978699%,14.118958%);fill-opacity:1;" d="M 318.078125 422.375 L 318.078125 314.6875 L 210.390625 314.6875 L 210.390625 422.375 Z M 318.078125 422.375 "/>
<path style=" stroke:none;fill-rule:evenodd;fill:rgb(92.939758%,10.978699%,14.118958%);fill-opacity:1;" d="M 534.414063 206.035156 L 534.414063 98.347656 L 426.730469 98.347656 L 426.730469 206.035156 Z M 534.414063 206.035156 "/>
<path style=" stroke:none;fill-rule:evenodd;fill:rgb(92.939758%,10.978699%,14.118958%);fill-opacity:1;" d="M 426.730469 314.6875 L 426.730469 206.035156 L 318.078125 206.035156 L 318.078125 314.6875 Z M 426.730469 314.6875 "/>
<path style=" stroke:none;fill-rule:evenodd;fill:rgb(0%,0%,0%);fill-opacity:1;" d="M 591.714844 446.003906 C 594.414063 448.070313 597.789063 449.296875 601.449219 449.296875 C 610.304688 449.296875 617.484375 442.117188 617.484375 433.261719 C 617.484375 428.050781 614.996094 423.417969 611.144531 420.492188 C 608.453125 418.445313 605.09375 417.226563 601.449219 417.226563 C 592.59375 417.226563 585.414063 424.40625 585.414063 433.261719 C 585.414063 438.457031 587.882813 443.074219 591.714844 446.003906 Z M 609.671875 422.464844 C 612.9375 424.945313 615.042969 428.867188 615.042969 433.28125 C 615.042969 440.78125 608.964844 446.859375 601.464844 446.859375 C 598.363281 446.859375 595.503906 445.820313 593.21875 444.070313 C 589.976563 441.589844 587.886719 437.679688 587.886719 433.28125 C 587.886719 425.78125 593.964844 419.703125 601.464844 419.703125 C 604.550781 419.703125 607.394531 420.730469 609.671875 422.464844 Z M 609.671875 422.464844 "/>
<path style=" stroke:none;fill-rule:evenodd;fill:rgb(0%,0%,0%);fill-opacity:1;" d="M 599.535156 435.039063 C 599.914063 435.183594 600.277344 435.4375 600.617188 435.796875 C 600.976563 436.175781 601.640625 437.09375 602.609375 438.550781 L 605.34375 442.625 L 609.867188 442.625 L 607.578125 438.972656 C 606.675781 437.515625 605.960938 436.503906 605.425781 435.933594 C 604.894531 435.363281 604.21875 434.839844 603.402344 434.359375 C 605.046875 434.121094 606.28125 433.546875 607.105469 432.628906 C 607.933594 431.714844 608.347656 430.554688 608.347656 429.148438 C 608.347656 428.042969 608.074219 427.058594 607.527344 426.199219 C 607.335938 425.894531 607.121094 425.625 606.882813 425.386719 C 606.449219 424.949219 605.9375 424.621094 605.351563 424.40625 C 604.445313 424.070313 602.988281 423.902344 600.988281 423.902344 L 593.03125 423.902344 L 593.03125 442.625 L 596.8125 442.625 L 596.8125 434.808594 L 597.578125 434.808594 C 598.445313 434.808594 599.082031 434.878906 599.480469 435.019531 C 599.5 435.023438 599.515625 435.03125 599.535156 435.039063 Z M 604.367188 428.691406 C 604.421875 428.90625 604.449219 429.140625 604.449219 429.394531 C 604.449219 429.953125 604.324219 430.421875 604.066406 430.796875 C 603.8125 431.171875 603.457031 431.4375 603.007813 431.589844 C 602.8125 431.65625 602.492188 431.707031 602.042969 431.746094 C 601.453125 431.792969 600.640625 431.820313 599.609375 431.820313 L 596.8125 431.820313 L 596.8125 427.066406 L 599.761719 427.066406 C 601.296875 427.066406 602.214844 427.089844 602.523438 427.132813 C 603.132813 427.234375 603.609375 427.480469 603.945313 427.867188 C 604.148438 428.097656 604.289063 428.371094 604.367188 428.691406 Z M 604.367188 428.691406 "/>
<path style=" stroke:none;fill-rule:evenodd;fill:rgb(0%,0%,0%);fill-opacity:1;" d="M 662.191406 504.953125 C 663.53125 505.980469 665.210938 506.589844 667.03125 506.589844 C 671.433594 506.589844 675.003906 503.023438 675.003906 498.617188 C 675.003906 496.027344 673.765625 493.722656 671.851563 492.269531 C 670.511719 491.25 668.839844 490.644531 667.03125 490.644531 C 662.625 490.644531 659.058594 494.214844 659.058594 498.617188 C 659.058594 501.203125 660.285156 503.496094 662.191406 504.953125 Z M 671.121094 493.25 C 672.742188 494.480469 673.789063 496.433594 673.789063 498.628906 C 673.789063 502.355469 670.765625 505.378906 667.039063 505.378906 C 665.496094 505.378906 664.074219 504.863281 662.9375 503.992188 C 661.328125 502.757813 660.289063 500.8125 660.289063 498.628906 C 660.289063 494.898438 663.308594 491.875 667.039063 491.875 C 668.570313 491.875 669.984375 492.386719 671.121094 493.25 Z M 671.121094 493.25 "/>
<path style=" stroke:none;fill-rule:evenodd;fill:rgb(0%,0%,0%);fill-opacity:1;" d="M 666.078125 499.5 C 666.269531 499.574219 666.445313 499.699219 666.617188 499.878906 C 666.796875 500.066406 667.125 500.523438 667.609375 501.246094 L 668.96875 503.273438 L 671.214844 503.273438 L 670.078125 501.457031 C 669.628906 500.734375 669.273438 500.230469 669.007813 499.945313 C 668.742188 499.660156 668.40625 499.402344 668 499.164063 C 668.820313 499.046875 669.433594 498.757813 669.84375 498.304688 C 670.253906 497.847656 670.460938 497.273438 670.460938 496.574219 C 670.460938 496.023438 670.324219 495.535156 670.054688 495.105469 C 669.957031 494.957031 669.851563 494.820313 669.734375 494.703125 C 669.515625 494.484375 669.261719 494.324219 668.96875 494.214844 C 668.519531 494.046875 667.796875 493.964844 666.800781 493.964844 L 662.84375 493.964844 L 662.84375 503.273438 L 664.726563 503.273438 L 664.726563 499.386719 L 665.105469 499.386719 C 665.539063 499.386719 665.851563 499.421875 666.050781 499.492188 C 666.0625 499.496094 666.070313 499.496094 666.078125 499.5 Z M 668.480469 496.34375 C 668.507813 496.453125 668.523438 496.566406 668.523438 496.695313 C 668.523438 496.972656 668.457031 497.207031 668.332031 497.394531 C 668.203125 497.578125 668.027344 497.710938 667.804688 497.785156 C 667.707031 497.820313 667.546875 497.84375 667.324219 497.863281 C 667.03125 497.886719 666.628906 497.902344 666.117188 497.902344 L 664.726563 497.902344 L 664.726563 495.539063 L 666.191406 495.539063 C 666.953125 495.539063 667.410156 495.550781 667.5625 495.570313 C 667.867188 495.621094 668.105469 495.742188 668.273438 495.933594 C 668.371094 496.050781 668.441406 496.1875 668.480469 496.34375 Z M 668.480469 496.34375 "/>
<path style=" stroke:none;fill-rule:evenodd;fill:rgb(0%,0%,0%);fill-opacity:1;" d="M 333.472656 556.867188 C 336.707031 556.835938 339.769531 556.335938 342.84375 555.25 C 349.820313 552.785156 354.53125 546.25 356.199219 539.234375 C 357.671875 533.035156 357.734375 526.402344 355.808594 520.292969 C 354.738281 516.898438 353.496094 513.554688 351.261719 510.742188 C 348.871094 507.738281 346.015625 505.242188 342.585938 503.496094 C 336.777344 500.539063 329.964844 501.035156 323.6875 501.28125 C 323.359375 501.296875 323.007813 501.535156 322.6875 501.625 C 322.449219 501.691406 322.339844 501.835938 322.109375 501.984375 C 318.863281 504.066406 318.996094 508.054688 319.027344 511.449219 C 319.054688 514.496094 319.039063 517.671875 319.042969 520.777344 C 319.046875 527.0625 319.039063 533.386719 319.042969 539.679688 C 319.046875 542.867188 319.03125 546.070313 319.050781 549.246094 C 319.058594 550.871094 318.871094 552.578125 319.6875 554.027344 C 320.558594 555.578125 322.128906 556.625 323.890625 556.746094 C 327.109375 556.96875 330.242188 556.898438 333.472656 556.867188 Z M 402.246094 635.929688 C 404.152344 635.824219 406.269531 636.054688 408.175781 635.753906 C 408.59375 635.6875 409.621094 635.195313 410.523438 634.605469 C 411.410156 634.03125 413.214844 630.105469 410.097656 629.9375 C 408.789063 629.542969 407.210938 629.597656 405.894531 629.167969 C 403.5625 628.398438 401.242188 627.203125 399.359375 625.53125 C 394.90625 621.574219 390.992188 617.066406 387.339844 612.367188 C 380.597656 603.691406 374.335938 594.652344 368.328125 585.460938 C 365.425781 581.027344 362.601563 576.546875 359.8125 572.039063 C 358.410156 569.773438 357.011719 567.5 355.699219 565.1875 C 355.0625 564.0625 354.304688 562.984375 353.847656 561.789063 C 353.65625 561.292969 353.71875 560.671875 353.878906 560.195313 C 354.058594 559.667969 354.21875 558.984375 354.644531 558.566406 C 356.617188 556.632813 359.335938 555.570313 361.460938 553.789063 C 363.726563 551.894531 366.054688 549.96875 367.828125 547.605469 C 370.804688 543.625 373.199219 539.070313 374.277344 534.210938 C 376.3125 525.035156 374.316406 514.949219 368.785156 507.3125 C 365.652344 502.984375 361.171875 499.722656 356.257813 497.628906 C 354.519531 496.890625 352.726563 496.292969 350.902344 495.820313 C 332.035156 492.582031 301.824219 494.378906 301.496094 494.394531 C 299.539063 494.476563 297.597656 494.6875 295.644531 494.878906 C 294.507813 494.992188 293.390625 495.070313 292.222656 495.09375 C 290.902344 495.121094 289.96875 496.226563 289.25 497.363281 C 288.9375 497.863281 289.039063 498.238281 289.328125 498.863281 C 290.851563 502.167969 294.644531 500.898438 297.242188 502.34375 C 299.992188 503.875 301.71875 506.976563 302.164063 510.078125 C 302.929688 515.371094 302.605469 520.847656 302.628906 526.246094 C 302.671875 537.085938 302.640625 547.96875 302.636719 558.820313 C 302.636719 569.671875 302.695313 580.558594 302.609375 591.394531 C 302.566406 596.800781 303.078125 602.332031 301.707031 607.5625 C 300.894531 610.664063 298.054688 613.191406 294.976563 613.761719 C 292.433594 614.234375 289.375 614.324219 288 616.960938 C 287.875 617.199219 287.824219 617.300781 287.800781 617.605469 C 287.773438 617.890625 287.792969 617.976563 287.890625 618.21875 C 288.84375 620.582031 291.472656 620.636719 293.609375 620.394531 C 295.457031 620.1875 297.402344 620.324219 299.296875 620.3125 C 303.160156 620.289063 307.042969 620.335938 310.914063 620.300781 C 314.785156 620.265625 318.664063 620.292969 322.53125 620.265625 C 324.429688 620.25 326.339844 620.320313 328.222656 620.363281 C 329.203125 620.386719 330.253906 620.484375 331.160156 620.222656 C 332.261719 619.902344 333.144531 618.632813 333.4375 617.738281 C 331.886719 613.265625 326.820313 614.65625 323.710938 612.574219 C 322.210938 611.570313 320.988281 609.996094 320.5 608.234375 C 320.441406 608.019531 319.039063 596.773438 318.988281 593.957031 C 318.976563 593.183594 318.976563 592.410156 319 591.632813 C 319.09375 588.128906 319.03125 584.648438 319.03125 581.148438 C 319.035156 577.570313 319.09375 574.023438 319.007813 570.433594 C 318.960938 568.46875 319.359375 566.550781 320.949219 565.199219 C 322.4375 563.9375 324.375 564.105469 326.175781 564.078125 C 329.859375 564.019531 333.847656 564.910156 336.390625 567.722656 C 339.207031 570.835938 341.097656 574.496094 343.378906 577.941406 C 348.035156 584.972656 352.546875 592.09375 357.203125 599.117188 C 361.878906 606.167969 366.304688 613.417969 371.53125 620.09375 C 374.355469 623.703125 377.542969 627.046875 381.296875 629.695313 C 384.472656 631.933594 388.050781 633.535156 391.777344 634.566406 C 395.183594 635.507813 398.78125 636.121094 402.246094 635.929688 C 405.707031 635.742188 402.246094 635.929688 402.246094 635.929688 Z M 402.246094 635.929688 "/>
<path style=" stroke:none;fill-rule:evenodd;fill:rgb(0%,0%,0%);fill-opacity:1;" d="M 226.445313 622.664063 C 229.128906 622.414063 231.808594 622.097656 234.386719 621.324219 C 241.355469 619.238281 248.171875 616.058594 253.234375 610.753906 C 255.117188 608.785156 256.789063 606.632813 258.230469 604.339844 C 266.476563 591.4375 265.980469 571.101563 265.976563 570.519531 C 265.914063 558.261719 266.03125 546.015625 265.929688 533.757813 C 265.929688 533.667969 265.929688 533.582031 265.929688 533.492188 C 265.917969 530.300781 267.539063 509.675781 268.015625 507.382813 C 268.199219 506.503906 268.480469 505.644531 268.9375 504.828125 C 270.761719 501.582031 274.789063 500.605469 278.085938 499.679688 C 278.550781 499.546875 279.105469 499.363281 279.480469 499.050781 C 279.589844 498.964844 279.695313 498.867188 279.800781 498.769531 C 280.464844 498.140625 281.988281 495.011719 279.007813 493.945313 C 277.148438 493.121094 274.660156 493.585938 272.601563 493.964844 C 269.5625 494.523438 266.238281 494.390625 263.0625 494.367188 C 259.894531 494.347656 256.671875 494.546875 253.492188 494.332031 C 250.378906 494.121094 247.308594 493.273438 244.152344 493.582031 C 243.925781 493.605469 243.699219 493.5 243.476563 493.574219 C 243.394531 493.601563 243.3125 493.632813 243.234375 493.664063 C 239.667969 494.09375 240.074219 499.488281 244.796875 499.804688 C 244.875 499.816406 244.957031 499.828125 245.039063 499.835938 C 246.539063 500.023438 247.929688 500.613281 249.402344 500.992188 C 250.910156 501.378906 252.28125 502.101563 253.402344 503.214844 C 254.59375 504.402344 255.144531 505.972656 255.578125 507.5625 C 255.996094 509.097656 256.332031 510.644531 256.570313 512.210938 C 256.773438 513.535156 257.445313 528.601563 257.476563 530.46875 C 257.628906 540.214844 257.417969 549.980469 257.511719 559.734375 C 257.566406 565.585938 257.539063 571.441406 257.148438 577.28125 C 256.75 583.246094 255.148438 589.082031 252.875 594.589844 C 250.234375 600.980469 245.632813 606.679688 239.546875 610.023438 C 236.835938 611.515625 233.949219 612.738281 230.933594 613.339844 C 228.101563 613.902344 225.160156 614.070313 222.285156 614.101563 C 219.335938 614.132813 216.304688 613.929688 213.410156 613.398438 C 210.40625 612.847656 207.441406 611.683594 204.757813 610.191406 C 198.597656 606.773438 193.847656 600.875 191.269531 594.359375 C 190.136719 591.496094 189.105469 588.488281 188.496094 585.464844 C 187.929688 582.628906 187.855469 579.667969 187.269531 576.8125 C 186.738281 574.214844 186.996094 571.523438 186.679688 568.90625 C 186.378906 554.050781 186.859375 515.523438 186.859375 515.296875 C 186.863281 512.585938 187.722656 510.078125 187.964844 507.296875 C 188.257813 503.894531 191.375 501.503906 194.492188 500.664063 C 195.816406 500.308594 197.320313 500.125 198.644531 499.671875 C 201.988281 499.40625 202.234375 494.175781 198.707031 493.5625 C 198.222656 493.519531 197.710938 493.550781 197.21875 493.523438 C 195.222656 493.40625 193.261719 493.796875 191.292969 494.035156 C 187.378906 494.511719 183.402344 494.425781 179.449219 494.386719 C 175.503906 494.347656 171.527344 494.628906 167.609375 494.164063 C 165.636719 493.933594 163.65625 493.554688 161.691406 493.535156 C 159.535156 493.515625 157.019531 493.363281 156.011719 495.8125 C 155.902344 496.074219 155.757813 496.070313 155.789063 496.378906 C 155.824219 496.683594 155.683594 496.839844 155.816406 497.074219 C 157.820313 500.667969 162.171875 499.914063 165.351563 501.789063 C 168.421875 503.601563 169.644531 507.292969 169.9375 510.761719 C 170.480469 517.160156 170.507813 523.652344 170.5 530.113281 C 170.480469 542.945313 170.511719 555.785156 170.492188 568.617188 C 170.492188 569.269531 170.488281 569.917969 170.484375 570.566406 C 170.414063 586.207031 172.953125 602.835938 185.386719 613.484375 C 197.957031 625.097656 225.898438 622.714844 226.445313 622.664063 Z M 226.445313 622.664063 "/>
<path style=" stroke:none;fill-rule:evenodd;fill:rgb(0%,0%,0%);fill-opacity:1;" d="M 571.574219 622.484375 C 571.910156 622.46875 571.945313 622.324219 572.226563 622.1875 C 574.597656 621.039063 574.609375 618.4375 574.339844 616.242188 C 574.09375 614.234375 574.125 612.144531 574.226563 610.078125 C 574.425781 606.03125 573.550781 602.046875 573.550781 598.007813 C 573.542969 589.886719 573.550781 581.753906 573.542969 573.628906 C 573.539063 565.503906 573.570313 557.378906 573.542969 549.25 C 573.53125 546.199219 573.578125 543.152344 573.5625 540.101563 C 573.558594 539.417969 574.101563 516.929688 575.183594 509.382813 C 575.335938 508.347656 576.023438 505.882813 576.183594 505.527344 C 576.875 504 578.117188 502.730469 579.5625 501.875 C 581.433594 500.765625 583.589844 500.246094 585.695313 499.679688 C 586.925781 499.347656 587.910156 498.4375 588.570313 497.285156 C 589.183594 496.21875 588.1875 495.054688 587.265625 494.316406 C 585.605469 492.996094 583.175781 493.628906 581.140625 493.902344 C 579.226563 494.15625 577.1875 494.367188 575.199219 494.386719 C 571.125 494.425781 566.984375 494.351563 562.90625 494.402344 C 558.871094 494.453125 554.882813 493.027344 550.835938 493.640625 C 550.171875 493.742188 549.683594 494.398438 549.246094 494.808594 C 548.824219 495.199219 548.25 495.785156 548.257813 496.402344 C 548.273438 497.515625 549.214844 498.519531 550.140625 499.132813 C 550.972656 499.683594 552.125 499.691406 553.113281 499.898438 C 554.097656 500.101563 555.097656 500.484375 556.082031 500.714844 C 558.367188 501.253906 560.753906 502.230469 562.015625 504.320313 C 563.125 506.167969 563.457031 508.238281 563.929688 510.296875 C 564.851563 514.332031 564.425781 518.5 564.796875 522.59375 C 565.164063 526.601563 565.09375 530.640625 565.089844 534.671875 C 565.082031 542.792969 565.097656 550.925781 565.085938 559.046875 C 565.074219 567.179688 565.128906 575.324219 565.027344 583.441406 C 565.019531 583.824219 564.460938 584.117188 564.292969 584.371094 C 564.164063 584.566406 563.800781 584.761719 563.566406 584.863281 C 563.121094 585.054688 562.453125 585.332031 561.984375 585.03125 C 560.960938 584.375 560.195313 583.417969 559.398438 582.511719 C 557.671875 580.539063 555.945313 578.570313 554.28125 576.542969 C 551.160156 572.730469 547.839844 569.089844 544.675781 565.3125 C 531.824219 549.964844 518.449219 535.097656 505.695313 519.660156 C 502.378906 515.644531 499.316406 511.441406 496.179688 507.269531 C 494.695313 505.300781 493.410156 503.238281 492.039063 501.164063 C 490.714844 499.167969 489.894531 497.042969 488.203125 495.164063 C 486.632813 493.417969 484.152344 493.8125 482.007813 494.125 C 480.085938 494.402344 478.054688 494.367188 476.09375 494.402344 C 474.066406 494.433594 471.980469 494.425781 469.96875 494.316406 C 467.988281 494.203125 466.007813 493.671875 464.023438 493.558594 C 462.96875 493.5 461.824219 493.449219 460.832031 493.761719 C 459.710938 494.109375 458.644531 495.039063 458.289063 496.195313 C 457.914063 497.410156 459.183594 498.574219 460.175781 499.214844 C 460.984375 499.738281 462.164063 499.867188 463.125 500.210938 C 465.097656 500.917969 467.351563 501.28125 469.246094 502.191406 C 471.433594 503.242188 473.546875 504.9375 474.675781 507.144531 C 476.582031 510.871094 476.789063 515.265625 477.019531 519.417969 C 477.242188 523.398438 477.082031 527.460938 477.085938 531.484375 C 477.105469 547.648438 477.121094 563.839844 477.082031 580.007813 C 477.074219 582.175781 477.144531 584.347656 477.140625 586.515625 C 477.136719 588.457031 475.6875 606.265625 475.492188 607.175781 C 475.234375 608.371094 474.804688 609.515625 474.050781 610.527344 C 472.574219 612.507813 470.308594 613.632813 467.898438 613.941406 C 466.800781 614.085938 465.683594 614.261719 464.722656 614.785156 C 463.757813 615.304688 462.972656 616.15625 462.488281 617.179688 C 461.992188 618.238281 463.175781 619.226563 464.015625 619.945313 C 464.78125 620.601563 465.960938 620.347656 466.992188 620.320313 C 471.066406 620.226563 475.191406 620.335938 479.285156 620.300781 C 483.300781 620.265625 487.347656 620.246094 491.355469 620.308594 C 493.398438 620.339844 495.511719 620.121094 497.496094 620.410156 C 499.5625 620.710938 502.21875 620.328125 502.769531 618.058594 C 503.101563 616.695313 501.605469 615.839844 500.671875 615.117188 C 499.917969 614.535156 498.699219 614.511719 497.722656 614.296875 C 495.777344 613.867188 493.601563 613.71875 491.824219 612.675781 C 489.726563 611.445313 488.292969 609.25 487.699219 606.910156 C 487.191406 604.902344 486.773438 602.828125 486.75 600.742188 C 486.707031 597.058594 486.226563 593.394531 486.183594 589.710938 L 485.363281 564.699219 C 485.363281 564.5625 485.363281 564.425781 485.363281 564.289063 C 485.394531 556.160156 485.3125 548.03125 485.351563 539.910156 C 485.363281 537.859375 485.417969 535.8125 485.363281 533.757813 C 485.308594 531.78125 485.394531 529.820313 485.324219 527.828125 C 485.28125 526.605469 485.601563 525.375 486.800781 524.734375 C 487.867188 524.164063 488.90625 524.734375 489.652344 525.53125 C 491.273438 527.261719 492.777344 529.042969 494.277344 530.847656 C 507.304688 546.519531 520.414063 562.105469 533.550781 577.683594 C 540.085938 585.433594 546.480469 593.296875 553.113281 600.960938 C 556.296875 604.640625 559.191406 608.554688 562.21875 612.351563 C 563.746094 614.265625 565.128906 616.320313 566.523438 618.304688 C 567.683594 619.960938 568.917969 621.777344 570.921875 622.398438 C 571.136719 622.464844 571.296875 622.492188 571.574219 622.484375 Z M 571.574219 622.484375 "/>
<path style=" stroke:none;fill-rule:evenodd;fill:rgb(0%,0%,0%);fill-opacity:1;" d="M 103.410156 618.203125 C 103.550781 617.835938 103.632813 617.804688 103.636719 617.398438 C 103.644531 616.984375 103.503906 616.773438 103.34375 616.484375 C 102.933594 615.75 102.375 615.171875 101.726563 614.667969 C 101.46875 614.464844 101.207031 614.273438 100.890625 614.171875 C 100.773438 614.132813 100.660156 614.066406 100.535156 614.070313 C 100.410156 614.074219 100.285156 613.980469 100.164063 613.96875 C 97.347656 613.632813 94.4375 613.40625 91.730469 612.539063 C 88.679688 611.5625 85.917969 609.289063 84.902344 606.203125 C 83.164063 600.917969 83.398438 595.3125 83.382813 589.800781 C 83.347656 578.804688 83.375 567.78125 83.371094 556.769531 C 83.371094 534.824219 83.371094 512.871094 83.371094 490.925781 C 83.367188 488.117188 83.371094 485.300781 83.367188 482.496094 C 83.367188 481.132813 83.382813 479.738281 83.355469 478.398438 C 83.324219 476.808594 84.289063 475.207031 85.632813 474.339844 C 87.992188 472.824219 91 472.484375 93.792969 472.332031 C 96.503906 472.179688 99.289063 472.617188 101.988281 473.09375 C 107.660156 474.101563 113.3125 476.160156 117.667969 480.007813 C 121.398438 483.300781 124.453125 487.390625 126.234375 492 C 131.832031 506.460938 130.144531 526.707031 118.117188 537.699219 C 115.746094 539.867188 113.0625 541.707031 110.207031 543.195313 C 107.582031 544.5625 104.734375 545.46875 102.027344 546.566406 C 99.222656 547.699219 95.621094 547.359375 94 550.441406 C 93.871094 550.683594 93.8125 550.738281 93.777344 551.085938 C 93.742188 551.433594 93.800781 551.394531 93.898438 551.675781 C 94.855469 554.460938 97.613281 554.300781 99.949219 554.261719 C 101.976563 554.226563 104.019531 554.167969 106.09375 554.125 C 110.363281 554.039063 114.34375 552.609375 118.429688 551.484375 C 127.597656 548.957031 135.832031 543.507813 141.761719 536.050781 C 143.015625 534.46875 144.09375 532.785156 145.042969 531.027344 C 146.328125 528.644531 156.949219 506.632813 143.53125 484.46875 C 140.3125 479.484375 135.835938 475.417969 130.722656 472.421875 C 113.402344 462.296875 59.109375 465.457031 58.175781 465.472656 C 55.003906 465.523438 51.828125 465.609375 48.671875 465.890625 C 48.355469 465.917969 48.042969 466.011719 47.765625 466.132813 C 47.535156 466.234375 47.273438 466.410156 47.085938 466.5625 C 46.269531 467.222656 45.261719 468.15625 45.203125 469.277344 C 45.148438 470.253906 45.855469 471.203125 46.597656 471.828125 C 48 473.003906 50.074219 473.128906 51.890625 473.359375 C 55.648438 473.828125 59.78125 475.558594 61.261719 479.269531 C 63.890625 485.875 63.371094 492.898438 63.394531 499.816406 C 63.441406 513.550781 63.40625 527.308594 63.410156 541.050781 C 63.410156 554.792969 63.433594 568.550781 63.398438 582.285156 C 63.378906 589.199219 63.703125 596.167969 62.582031 602.988281 C 61.964844 606.734375 60.152344 610.550781 56.421875 611.957031 C 54.628906 612.636719 53.050781 613.332031 51.1875 613.539063 C 49.246094 613.753906 47.382813 614.445313 46.398438 616.277344 C 46.152344 616.738281 45.90625 616.949219 46.023438 617.535156 C 46.703125 620.882813 50.148438 620.859375 52.792969 620.515625 C 55.140625 620.214844 57.652344 620.28125 60.066406 620.285156 C 60.386719 620.285156 60.707031 620.285156 61.027344 620.28125 L 86.949219 620.28125 C 87.707031 620.28125 88.464844 620.28125 89.222656 620.285156 C 91.648438 620.296875 94.132813 620.269531 96.496094 620.574219 C 99.0625 620.90625 102.242188 621.269531 103.410156 618.203125 Z M 103.410156 618.203125 "/>
<path style=" stroke:none;fill-rule:evenodd;fill:rgb(0%,0%,0%);fill-opacity:1;" d="M 439.402344 620.394531 C 441.429688 620.578125 443.851563 620.644531 444.886719 618.484375 C 445.050781 618.144531 445.199219 618.019531 445.144531 617.601563 C 445.097656 617.273438 445.074219 617.203125 444.929688 616.953125 C 443.128906 613.84375 439.636719 614.378906 436.632813 613.4375 C 433.578125 612.476563 431.746094 609.503906 431.054688 606.441406 C 429.824219 601 430.011719 595.378906 430.011719 589.804688 C 430.011719 578.796875 430.003906 567.78125 430.007813 556.769531 C 430.011719 545.683594 430 534.59375 430.007813 523.503906 C 430.011719 520.695313 429.945313 517.898438 430.078125 515.074219 C 430.210938 512.28125 430.839844 509.65625 431.355469 506.84375 C 431.945313 503.644531 434.824219 501.457031 437.820313 500.664063 C 440.664063 499.914063 444.242188 499.871094 445.304688 496.570313 C 444.648438 494.617188 442.804688 493.378906 440.789063 493.460938 C 438.910156 493.535156 437.128906 493.671875 435.3125 493.992188 C 431.699219 494.621094 428.027344 494.34375 424.375 494.378906 C 420.734375 494.414063 417.078125 494.40625 413.441406 494.375 C 409.78125 494.347656 406.214844 493.105469 402.496094 493.613281 C 402.265625 493.644531 402.050781 493.507813 401.824219 493.574219 C 401.582031 493.644531 401.355469 493.699219 401.136719 493.796875 C 399.984375 494.308594 399.113281 495.421875 398.65625 496.535156 C 399.738281 499.804688 403.128906 499.980469 405.964844 500.710938 C 409.078125 501.511719 411.859375 503.847656 412.566406 507.050781 C 413.789063 512.597656 414.023438 518.132813 413.984375 523.726563 C 413.910156 534.910156 413.964844 546.054688 413.964844 557.226563 C 413.96875 568.394531 413.902344 579.550781 413.992188 590.71875 C 414.039063 596.382813 413.800781 602.042969 412.503906 607.582031 C 411.804688 610.566406 409.394531 613.089844 406.410156 613.691406 C 403.433594 614.289063 399.929688 614.292969 398.691406 617.707031 C 399.03125 618.628906 399.875 619.828125 400.941406 620.167969 C 401.839844 620.457031 402.898438 620.273438 403.878906 620.28125 C 405.835938 620.289063 407.824219 620.265625 409.796875 620.273438 C 413.742188 620.289063 417.695313 620.292969 421.640625 620.289063 C 425.589844 620.285156 429.546875 620.285156 433.488281 620.296875 C 435.460938 620.300781 437.46875 620.21875 439.402344 620.394531 Z M 439.402344 620.394531 "/>
<path style=" stroke:none;fill-rule:evenodd;fill:rgb(0%,0%,0%);fill-opacity:1;" d="M 634.246094 561.59375 C 637.042969 561.625 639.867188 561.570313 642.671875 561.59375 C 644.039063 561.605469 645.398438 561.617188 646.769531 561.574219 C 647.523438 561.546875 648.21875 561.273438 648.800781 560.828125 C 649.929688 559.964844 650.375 558.574219 649.957031 557.21875 C 648.050781 551.058594 646.296875 545.664063 644.617188 540.273438 C 643.648438 537.164063 642.65625 534.054688 641.65625 530.953125 C 641.140625 529.355469 640.589844 527.761719 640.074219 526.167969 C 639.558594 524.574219 639.460938 522.777344 638.121094 521.582031 C 638.011719 521.484375 637.929688 521.394531 637.808594 521.363281 C 637.691406 521.332031 637.53125 521.085938 637.441406 521.210938 C 637.335938 521.34375 637.054688 520.914063 636.910156 520.976563 C 633.9375 522.230469 633.726563 525.949219 632.609375 528.714844 C 631.523438 531.402344 630.542969 534.300781 629.578125 537.101563 C 627.65625 542.671875 625.816406 548.371094 623.957031 553.960938 C 623.484375 555.375 622.664063 556.816406 622.816406 558.269531 C 622.972656 559.777344 624.308594 561.230469 625.820313 561.414063 C 628.558594 561.753906 631.4375 561.558594 634.246094 561.59375 Z M 583.664063 620.0625 C 589.339844 619.859375 595.074219 620.0625 600.742188 619.992188 C 603.609375 619.953125 606.59375 620.074219 609.375 619.957031 C 611.75 619.855469 614.691406 620.765625 616.808594 618.871094 C 617.597656 618.167969 617.679688 616.96875 616.996094 616.164063 C 614.160156 612.828125 608.796875 614.859375 606.886719 610.882813 C 606.757813 610.617188 606.605469 610.539063 606.605469 610.253906 C 606.605469 609.992188 606.375 609.769531 606.398438 609.542969 C 607.003906 604.207031 609.078125 599.183594 610.640625 594.074219 C 612.222656 588.894531 614.050781 583.730469 615.644531 578.578125 C 616.484375 575.855469 616.960938 572.78125 619.390625 571.027344 C 621.667969 569.382813 624.503906 569.980469 627.1875 569.910156 C 632.253906 569.785156 637.363281 569.878906 642.445313 569.839844 L 645.683594 569.878906 L 649.199219 569.921875 C 652.230469 569.960938 654.765625 571.832031 655.699219 574.714844 C 656.367188 576.792969 656.894531 578.425781 656.894531 578.425781 C 658.230469 582.558594 659.417969 586.726563 660.71875 590.867188 C 661.527344 593.4375 662.261719 596.039063 663.074219 598.601563 C 663.882813 601.15625 664.820313 603.703125 665.179688 606.351563 C 665.355469 607.640625 665.789063 609.019531 665.300781 610.207031 C 664.761719 611.523438 663.601563 612.78125 662.269531 613.171875 C 660.414063 613.714844 658.144531 613.984375 656.257813 615.695313 C 655.433594 616.4375 655.304688 617.664063 655.960938 618.5625 C 656.664063 619.535156 657.84375 620.320313 659.070313 620.175781 C 660.824219 619.972656 662.5625 619.980469 664.316406 619.992188 C 667.8125 620.019531 671.300781 619.972656 674.796875 619.984375 C 681.804688 620.011719 688.808594 619.972656 695.816406 620 C 696.25 619.792969 696.664063 619.496094 697.292969 618.890625 C 698.066406 618.152344 698.179688 616.992188 697.574219 616.117188 C 696.082031 613.96875 693.132813 614.011719 690.726563 613.289063 C 687.679688 612.375 685.214844 609.828125 683.714844 606.992188 C 680.976563 601.804688 679.460938 596.003906 677.492188 590.460938 C 675.535156 584.949219 674.007813 579.253906 672.105469 573.710938 C 670.214844 568.210938 668.476563 562.652344 666.582031 557.144531 C 664.6875 551.636719 663.132813 546.03125 661.25 540.523438 C 659.355469 534.976563 657.453125 529.433594 655.742188 523.835938 C 654.050781 518.300781 652.117188 512.816406 650.503906 507.261719 C 649.707031 504.527344 648.757813 501.78125 648.046875 499.078125 C 647.277344 496.140625 646.460938 492.695313 643.351563 491.453125 C 643.101563 491.351563 642.871094 491.554688 642.613281 491.539063 C 642.378906 491.523438 642.207031 491.679688 641.996094 491.777344 C 640.246094 492.566406 639.121094 494.132813 637.648438 495.300781 C 636.265625 496.398438 634.828125 497.320313 633.722656 498.777344 C 632.808594 499.992188 632.777344 501.457031 632.699219 502.925781 C 632.617188 504.363281 632.203125 505.726563 631.75 507.082031 C 630.839844 509.792969 630.183594 512.578125 629.128906 515.238281 C 628.054688 517.941406 627.15625 520.707031 626.167969 523.4375 C 622.183594 534.4375 618.3125 545.464844 614.339844 556.46875 C 610.351563 567.523438 606.34375 578.570313 602.121094 589.53125 C 600.011719 595.015625 597.945313 600.550781 595.53125 605.871094 C 594.15625 608.898438 591.890625 611.785156 588.703125 612.820313 C 586.339844 613.589844 583.554688 613.53125 581.394531 615.621094 C 580.503906 616.476563 580.457031 617.878906 581.285156 618.796875 C 581.582031 619.09375 581.90625 619.351563 582.25 619.617188 C 582.660156 619.9375 583.160156 620.078125 583.664063 620.0625 Z M 583.664063 620.0625 "/>
</g>
</svg>
